<mxfile host="app.diagrams.net" agent="Mozilla/5.0 (Windows NT 10.0; Win64; x64) AppleWebKit/537.36 (KHTML, like Gecko) Chrome/128.0.0.0 Safari/537.36" version="24.7.14">
  <diagram name="Página-1" id="vQMJz8D09QA8stu6VS_I">
    <mxGraphModel dx="1434" dy="772" grid="1" gridSize="10" guides="1" tooltips="1" connect="1" arrows="1" fold="1" page="1" pageScale="1" pageWidth="827" pageHeight="1169" math="0" shadow="0">
      <root>
        <mxCell id="0" />
        <mxCell id="1" parent="0" />
        <mxCell id="ReuJvNXruMASmXw_oC1F-6" style="edgeStyle=orthogonalEdgeStyle;rounded=0;orthogonalLoop=1;jettySize=auto;html=1;entryX=0.5;entryY=0;entryDx=0;entryDy=0;" edge="1" parent="1" source="ReuJvNXruMASmXw_oC1F-1" target="ReuJvNXruMASmXw_oC1F-2">
          <mxGeometry relative="1" as="geometry" />
        </mxCell>
        <mxCell id="ReuJvNXruMASmXw_oC1F-36" style="edgeStyle=orthogonalEdgeStyle;rounded=0;orthogonalLoop=1;jettySize=auto;html=1;entryX=0;entryY=0.5;entryDx=0;entryDy=0;" edge="1" parent="1" source="ReuJvNXruMASmXw_oC1F-1" target="ReuJvNXruMASmXw_oC1F-3">
          <mxGeometry relative="1" as="geometry" />
        </mxCell>
        <mxCell id="ReuJvNXruMASmXw_oC1F-1" value="&lt;b&gt;Inicio&lt;/b&gt;" style="ellipse;whiteSpace=wrap;html=1;" vertex="1" parent="1">
          <mxGeometry x="220" y="230" width="120" height="80" as="geometry" />
        </mxCell>
        <mxCell id="ReuJvNXruMASmXw_oC1F-7" style="edgeStyle=orthogonalEdgeStyle;rounded=0;orthogonalLoop=1;jettySize=auto;html=1;entryX=0.5;entryY=0;entryDx=0;entryDy=0;" edge="1" parent="1" source="ReuJvNXruMASmXw_oC1F-2" target="ReuJvNXruMASmXw_oC1F-4">
          <mxGeometry relative="1" as="geometry" />
        </mxCell>
        <mxCell id="ReuJvNXruMASmXw_oC1F-2" value="&lt;b&gt;Cadastro&lt;/b&gt;" style="rounded=0;whiteSpace=wrap;html=1;" vertex="1" parent="1">
          <mxGeometry x="100" y="350" width="120" height="60" as="geometry" />
        </mxCell>
        <mxCell id="ReuJvNXruMASmXw_oC1F-42" style="edgeStyle=orthogonalEdgeStyle;rounded=0;orthogonalLoop=1;jettySize=auto;html=1;entryX=0;entryY=0.5;entryDx=0;entryDy=0;" edge="1" parent="1" source="ReuJvNXruMASmXw_oC1F-3" target="ReuJvNXruMASmXw_oC1F-37">
          <mxGeometry relative="1" as="geometry" />
        </mxCell>
        <mxCell id="ReuJvNXruMASmXw_oC1F-3" value="&lt;b&gt;Exclusão&lt;/b&gt;" style="rounded=0;whiteSpace=wrap;html=1;" vertex="1" parent="1">
          <mxGeometry x="420" y="240" width="120" height="60" as="geometry" />
        </mxCell>
        <mxCell id="ReuJvNXruMASmXw_oC1F-12" style="edgeStyle=orthogonalEdgeStyle;rounded=0;orthogonalLoop=1;jettySize=auto;html=1;entryX=0.5;entryY=0;entryDx=0;entryDy=0;" edge="1" parent="1" source="ReuJvNXruMASmXw_oC1F-4" target="ReuJvNXruMASmXw_oC1F-11">
          <mxGeometry relative="1" as="geometry" />
        </mxCell>
        <mxCell id="ReuJvNXruMASmXw_oC1F-13" value="CPF VÁLIDO" style="edgeLabel;html=1;align=center;verticalAlign=middle;resizable=0;points=[];" vertex="1" connectable="0" parent="ReuJvNXruMASmXw_oC1F-12">
          <mxGeometry x="-0.3" y="-1" relative="1" as="geometry">
            <mxPoint as="offset" />
          </mxGeometry>
        </mxCell>
        <mxCell id="ReuJvNXruMASmXw_oC1F-24" style="edgeStyle=orthogonalEdgeStyle;rounded=0;orthogonalLoop=1;jettySize=auto;html=1;entryX=0;entryY=0.5;entryDx=0;entryDy=0;" edge="1" parent="1" source="ReuJvNXruMASmXw_oC1F-4" target="ReuJvNXruMASmXw_oC1F-23">
          <mxGeometry relative="1" as="geometry" />
        </mxCell>
        <mxCell id="ReuJvNXruMASmXw_oC1F-25" value="CPF INVÁLIDO" style="edgeLabel;html=1;align=center;verticalAlign=middle;resizable=0;points=[];" vertex="1" connectable="0" parent="ReuJvNXruMASmXw_oC1F-24">
          <mxGeometry x="-0.0206" relative="1" as="geometry">
            <mxPoint x="1" as="offset" />
          </mxGeometry>
        </mxCell>
        <mxCell id="ReuJvNXruMASmXw_oC1F-4" value="&lt;b&gt;Valida CPF&lt;/b&gt;" style="rhombus;whiteSpace=wrap;html=1;" vertex="1" parent="1">
          <mxGeometry x="87.5" y="480" width="145" height="80" as="geometry" />
        </mxCell>
        <mxCell id="ReuJvNXruMASmXw_oC1F-15" style="edgeStyle=orthogonalEdgeStyle;rounded=0;orthogonalLoop=1;jettySize=auto;html=1;entryX=0.5;entryY=0;entryDx=0;entryDy=0;" edge="1" parent="1" source="ReuJvNXruMASmXw_oC1F-11" target="ReuJvNXruMASmXw_oC1F-20">
          <mxGeometry relative="1" as="geometry">
            <mxPoint x="160" y="800" as="targetPoint" />
          </mxGeometry>
        </mxCell>
        <mxCell id="ReuJvNXruMASmXw_oC1F-16" value="Email válido" style="edgeLabel;html=1;align=center;verticalAlign=middle;resizable=0;points=[];" vertex="1" connectable="0" parent="ReuJvNXruMASmXw_oC1F-15">
          <mxGeometry x="-0.1667" relative="1" as="geometry">
            <mxPoint as="offset" />
          </mxGeometry>
        </mxCell>
        <mxCell id="ReuJvNXruMASmXw_oC1F-32" style="edgeStyle=orthogonalEdgeStyle;rounded=0;orthogonalLoop=1;jettySize=auto;html=1;entryX=0;entryY=0.5;entryDx=0;entryDy=0;" edge="1" parent="1" source="ReuJvNXruMASmXw_oC1F-11" target="ReuJvNXruMASmXw_oC1F-31">
          <mxGeometry relative="1" as="geometry" />
        </mxCell>
        <mxCell id="ReuJvNXruMASmXw_oC1F-33" value="EMAIL INVÁLIDO" style="edgeLabel;html=1;align=center;verticalAlign=middle;resizable=0;points=[];" vertex="1" connectable="0" parent="ReuJvNXruMASmXw_oC1F-32">
          <mxGeometry x="-0.307" y="-1" relative="1" as="geometry">
            <mxPoint x="30" y="-1" as="offset" />
          </mxGeometry>
        </mxCell>
        <mxCell id="ReuJvNXruMASmXw_oC1F-11" value="&lt;b&gt;Valida Email&lt;/b&gt;" style="rhombus;whiteSpace=wrap;html=1;" vertex="1" parent="1">
          <mxGeometry x="87.5" y="660" width="145" height="80" as="geometry" />
        </mxCell>
        <mxCell id="ReuJvNXruMASmXw_oC1F-19" value="&lt;b&gt;Fim&lt;/b&gt;" style="ellipse;whiteSpace=wrap;html=1;" vertex="1" parent="1">
          <mxGeometry x="100" y="1230" width="120" height="80" as="geometry" />
        </mxCell>
        <mxCell id="ReuJvNXruMASmXw_oC1F-28" style="edgeStyle=orthogonalEdgeStyle;rounded=0;orthogonalLoop=1;jettySize=auto;html=1;entryX=0.5;entryY=0;entryDx=0;entryDy=0;" edge="1" parent="1" source="ReuJvNXruMASmXw_oC1F-20" target="ReuJvNXruMASmXw_oC1F-21">
          <mxGeometry relative="1" as="geometry" />
        </mxCell>
        <mxCell id="ReuJvNXruMASmXw_oC1F-20" value="&lt;b&gt;Adicionar à Lista&lt;/b&gt;" style="rounded=0;whiteSpace=wrap;html=1;" vertex="1" parent="1">
          <mxGeometry x="100" y="820" width="120" height="60" as="geometry" />
        </mxCell>
        <mxCell id="ReuJvNXruMASmXw_oC1F-29" style="edgeStyle=orthogonalEdgeStyle;rounded=0;orthogonalLoop=1;jettySize=auto;html=1;entryX=0.5;entryY=0;entryDx=0;entryDy=0;" edge="1" parent="1" source="ReuJvNXruMASmXw_oC1F-21" target="ReuJvNXruMASmXw_oC1F-22">
          <mxGeometry relative="1" as="geometry" />
        </mxCell>
        <mxCell id="ReuJvNXruMASmXw_oC1F-21" value="&lt;b&gt;Gerar PDF de Cadastro&lt;/b&gt;" style="rounded=0;whiteSpace=wrap;html=1;" vertex="1" parent="1">
          <mxGeometry x="100" y="960" width="120" height="60" as="geometry" />
        </mxCell>
        <mxCell id="ReuJvNXruMASmXw_oC1F-30" style="edgeStyle=orthogonalEdgeStyle;rounded=0;orthogonalLoop=1;jettySize=auto;html=1;entryX=0.5;entryY=0;entryDx=0;entryDy=0;" edge="1" parent="1" source="ReuJvNXruMASmXw_oC1F-22" target="ReuJvNXruMASmXw_oC1F-19">
          <mxGeometry relative="1" as="geometry" />
        </mxCell>
        <mxCell id="ReuJvNXruMASmXw_oC1F-22" value="&lt;b&gt;Sucesso&lt;/b&gt;" style="rounded=0;whiteSpace=wrap;html=1;" vertex="1" parent="1">
          <mxGeometry x="100" y="1090" width="120" height="60" as="geometry" />
        </mxCell>
        <mxCell id="ReuJvNXruMASmXw_oC1F-27" style="edgeStyle=orthogonalEdgeStyle;rounded=0;orthogonalLoop=1;jettySize=auto;html=1;entryX=0;entryY=0.5;entryDx=0;entryDy=0;" edge="1" parent="1" source="ReuJvNXruMASmXw_oC1F-23" target="ReuJvNXruMASmXw_oC1F-26">
          <mxGeometry relative="1" as="geometry">
            <Array as="points">
              <mxPoint x="550" y="520" />
              <mxPoint x="550" y="520" />
            </Array>
          </mxGeometry>
        </mxCell>
        <mxCell id="ReuJvNXruMASmXw_oC1F-23" value="&lt;b&gt;Mensagem de Erro CPF&lt;/b&gt;" style="rounded=0;whiteSpace=wrap;html=1;" vertex="1" parent="1">
          <mxGeometry x="360" y="490" width="120" height="60" as="geometry" />
        </mxCell>
        <mxCell id="ReuJvNXruMASmXw_oC1F-26" value="&lt;b&gt;Fim&lt;/b&gt;" style="ellipse;whiteSpace=wrap;html=1;" vertex="1" parent="1">
          <mxGeometry x="530" y="480" width="120" height="80" as="geometry" />
        </mxCell>
        <mxCell id="ReuJvNXruMASmXw_oC1F-35" style="edgeStyle=orthogonalEdgeStyle;rounded=0;orthogonalLoop=1;jettySize=auto;html=1;entryX=0;entryY=0.5;entryDx=0;entryDy=0;" edge="1" parent="1" source="ReuJvNXruMASmXw_oC1F-31" target="ReuJvNXruMASmXw_oC1F-34">
          <mxGeometry relative="1" as="geometry" />
        </mxCell>
        <mxCell id="ReuJvNXruMASmXw_oC1F-31" value="&lt;b&gt;Mensagem de Erro Email&lt;/b&gt;" style="rounded=0;whiteSpace=wrap;html=1;" vertex="1" parent="1">
          <mxGeometry x="380" y="670" width="120" height="60" as="geometry" />
        </mxCell>
        <mxCell id="ReuJvNXruMASmXw_oC1F-34" value="&lt;b&gt;Fim&lt;/b&gt;" style="ellipse;whiteSpace=wrap;html=1;" vertex="1" parent="1">
          <mxGeometry x="550" y="660" width="120" height="80" as="geometry" />
        </mxCell>
        <mxCell id="ReuJvNXruMASmXw_oC1F-43" style="edgeStyle=orthogonalEdgeStyle;rounded=0;orthogonalLoop=1;jettySize=auto;html=1;entryX=0;entryY=0.5;entryDx=0;entryDy=0;" edge="1" parent="1" source="ReuJvNXruMASmXw_oC1F-37" target="ReuJvNXruMASmXw_oC1F-38">
          <mxGeometry relative="1" as="geometry" />
        </mxCell>
        <mxCell id="ReuJvNXruMASmXw_oC1F-44" value="Cliente ENCONTRADO" style="edgeLabel;html=1;align=center;verticalAlign=middle;resizable=0;points=[];" vertex="1" connectable="0" parent="ReuJvNXruMASmXw_oC1F-43">
          <mxGeometry x="0.12" y="1" relative="1" as="geometry">
            <mxPoint x="-23" y="1" as="offset" />
          </mxGeometry>
        </mxCell>
        <mxCell id="ReuJvNXruMASmXw_oC1F-37" value="&lt;b&gt;Verifica Cliente na Lista&lt;/b&gt;" style="rhombus;whiteSpace=wrap;html=1;" vertex="1" parent="1">
          <mxGeometry x="640" y="230" width="145" height="80" as="geometry" />
        </mxCell>
        <mxCell id="ReuJvNXruMASmXw_oC1F-45" style="edgeStyle=orthogonalEdgeStyle;rounded=0;orthogonalLoop=1;jettySize=auto;html=1;entryX=0;entryY=0.5;entryDx=0;entryDy=0;" edge="1" parent="1" source="ReuJvNXruMASmXw_oC1F-38" target="ReuJvNXruMASmXw_oC1F-39">
          <mxGeometry relative="1" as="geometry" />
        </mxCell>
        <mxCell id="ReuJvNXruMASmXw_oC1F-38" value="&lt;b&gt;Gerar PDF Exclusão&lt;/b&gt;" style="rounded=0;whiteSpace=wrap;html=1;" vertex="1" parent="1">
          <mxGeometry x="960" y="240" width="120" height="60" as="geometry" />
        </mxCell>
        <mxCell id="ReuJvNXruMASmXw_oC1F-46" style="edgeStyle=orthogonalEdgeStyle;rounded=0;orthogonalLoop=1;jettySize=auto;html=1;entryX=0;entryY=0.5;entryDx=0;entryDy=0;" edge="1" parent="1" source="ReuJvNXruMASmXw_oC1F-39" target="ReuJvNXruMASmXw_oC1F-40">
          <mxGeometry relative="1" as="geometry" />
        </mxCell>
        <mxCell id="ReuJvNXruMASmXw_oC1F-39" value="&lt;b&gt;Remover da Lista&lt;/b&gt;" style="rounded=0;whiteSpace=wrap;html=1;" vertex="1" parent="1">
          <mxGeometry x="1140" y="240" width="120" height="60" as="geometry" />
        </mxCell>
        <mxCell id="ReuJvNXruMASmXw_oC1F-47" style="edgeStyle=orthogonalEdgeStyle;rounded=0;orthogonalLoop=1;jettySize=auto;html=1;entryX=0;entryY=0.5;entryDx=0;entryDy=0;" edge="1" parent="1" source="ReuJvNXruMASmXw_oC1F-40" target="ReuJvNXruMASmXw_oC1F-41">
          <mxGeometry relative="1" as="geometry" />
        </mxCell>
        <mxCell id="ReuJvNXruMASmXw_oC1F-40" value="&lt;b&gt;Sucesso&lt;/b&gt;" style="rounded=0;whiteSpace=wrap;html=1;" vertex="1" parent="1">
          <mxGeometry x="1320" y="240" width="120" height="60" as="geometry" />
        </mxCell>
        <mxCell id="ReuJvNXruMASmXw_oC1F-41" value="&lt;b&gt;Fim&lt;/b&gt;" style="ellipse;whiteSpace=wrap;html=1;" vertex="1" parent="1">
          <mxGeometry x="1490" y="230" width="120" height="80" as="geometry" />
        </mxCell>
        <mxCell id="ReuJvNXruMASmXw_oC1F-52" style="edgeStyle=orthogonalEdgeStyle;rounded=0;orthogonalLoop=1;jettySize=auto;html=1;entryX=0;entryY=0.5;entryDx=0;entryDy=0;" edge="1" parent="1" source="ReuJvNXruMASmXw_oC1F-48" target="ReuJvNXruMASmXw_oC1F-49">
          <mxGeometry relative="1" as="geometry" />
        </mxCell>
        <mxCell id="ReuJvNXruMASmXw_oC1F-48" value="&lt;b&gt;Mensagem de Erro Cliente&lt;/b&gt;" style="rounded=0;whiteSpace=wrap;html=1;" vertex="1" parent="1">
          <mxGeometry x="940" y="343" width="120" height="60" as="geometry" />
        </mxCell>
        <mxCell id="ReuJvNXruMASmXw_oC1F-49" value="&lt;b&gt;Fim&lt;/b&gt;" style="ellipse;whiteSpace=wrap;html=1;" vertex="1" parent="1">
          <mxGeometry x="1130" y="333" width="120" height="80" as="geometry" />
        </mxCell>
        <mxCell id="ReuJvNXruMASmXw_oC1F-50" style="edgeStyle=orthogonalEdgeStyle;rounded=0;orthogonalLoop=1;jettySize=auto;html=1;entryX=0.008;entryY=0.617;entryDx=0;entryDy=0;entryPerimeter=0;" edge="1" parent="1" source="ReuJvNXruMASmXw_oC1F-37" target="ReuJvNXruMASmXw_oC1F-48">
          <mxGeometry relative="1" as="geometry">
            <Array as="points">
              <mxPoint x="710" y="380" />
              <mxPoint x="901" y="380" />
            </Array>
          </mxGeometry>
        </mxCell>
        <mxCell id="ReuJvNXruMASmXw_oC1F-51" value="Cliente NÃO ENCONTRADO" style="edgeLabel;html=1;align=center;verticalAlign=middle;resizable=0;points=[];" vertex="1" connectable="0" parent="ReuJvNXruMASmXw_oC1F-50">
          <mxGeometry x="0.1259" relative="1" as="geometry">
            <mxPoint x="12" as="offset" />
          </mxGeometry>
        </mxCell>
      </root>
    </mxGraphModel>
  </diagram>
</mxfile>
